<svg width="63" height="64" viewBox="0 0 63 64" fill="none" xmlns="http://www.w3.org/2000/svg">
<path d="M36.75 40.2728H26.25L27.5704 39.2422C29.3523 37.8509 29.896 35.4338 28.875 33.4422L28.7175 33.0776L30.352 32.5884H32.9219L34.2816 33.0785L34.125 33.4422C33.1047 35.4338 33.6487 37.8504 35.4305 39.2414L36.75 40.2728Z" fill="#FBB540"/>
<path d="M36.75 44.5422H26.25V40.2731L27.125 39.9529H35.875L36.75 40.2731V44.5422Z" fill="#FBB540"/>
<path d="M30.352 32.5884L28.7192 33.0785L28.8759 33.4422C29.2287 34.1358 29.4009 34.9035 29.3772 35.6775C30.7811 36.0373 32.2638 35.9736 33.6297 35.4948C33.6337 34.7828 33.8033 34.081 34.1259 33.4422L34.2834 33.0776L32.9227 32.5884H30.352Z" fill="#EA9D2D"/>
<path d="M26.25 41.9805H36.75V45.3958H26.25V41.9805Z" fill="#EA9D2D"/>
<path d="M26.25 39.9583H36.75V50.3839H26.25V39.9583Z" fill="#5D62B5"/>
<path d="M26.25 42.5647H36.75V45.1711H26.25V42.5647Z" fill="#50559F"/>
<path d="M26.25 47.7776H36.75V50.384H26.25V47.7776Z" fill="#50559F"/>
<path d="M18.375 47.7776H44.625V58.2032H18.375V47.7776Z" fill="#5D62B5"/>
<path d="M19.7324 50.5186H21.5428V58.2029H19.7324V50.5186Z" fill="#50559F"/>
<path d="M23.3535 50.5186H25.1639V58.2029H23.3535V50.5186Z" fill="#50559F"/>
<path d="M37.8369 50.5186H39.6473V58.2029H37.8369V50.5186Z" fill="#50559F"/>
<path d="M41.4565 50.5186H43.2669V58.2029H41.4565V50.5186Z" fill="#50559F"/>
<path d="M19.7324 12.0967H44.1721V15.512H19.7324V12.0967Z" fill="#FBB540"/>
<path d="M41.4561 25.7578V22.3425H43.2664C46.7641 22.3388 49.5986 19.6651 49.6026 16.3658V15.512H42.3612V12.0967H51.413C52.4128 12.0967 53.2233 12.8612 53.2233 13.8043V16.3658C53.2168 21.5503 48.7627 25.7517 43.2664 25.7578H41.4561Z" fill="#FBB540"/>
<path d="M21.5431 25.7578V22.3425H19.7328C16.2351 22.3388 13.4005 19.6651 13.3966 16.3658V15.512H20.6379V12.0967H11.5862C10.5863 12.0967 9.77588 12.8612 9.77588 13.8043V16.3658C9.78233 21.5503 14.2365 25.7517 19.7328 25.7578H21.5431Z" fill="#FBB540"/>
<path d="M20.6387 8.6814H42.3628V23.1964C42.3628 28.855 37.4997 33.4422 31.5007 33.4422C25.5018 33.4422 20.6387 28.855 20.6387 23.1964V8.6814Z" fill="#FBB540"/>
<path d="M20.6387 8.6814H42.3628V13.8043H20.6387V8.6814Z" fill="#FBB540"/>
<path d="M23.625 13.8943H39.375V16.5007H23.625V13.8943Z" fill="#EA9D2D"/>
</svg>
