<svg width="63" height="63" viewBox="0 0 63 63" fill="none" xmlns="http://www.w3.org/2000/svg">
<g clip-path="url(#clip0_614_153)">
<path d="M0 47.6216V61.4046H4.27119V59.2841C4.27119 56.9421 6.18363 55.0432 8.54237 55.0432H42.7119C45.0706 55.0432 46.983 56.9421 46.983 59.2841V61.4046H51.2542V47.6216H0Z" fill="#D9C2A0"/>
<path d="M46.9832 18.9955C45.2141 18.9955 43.7798 17.5713 43.7798 15.8148L44.8476 13.6943H49.1188L50.1866 15.8148C50.1866 17.5713 48.7522 18.9955 46.9832 18.9955Z" fill="#F7BA61"/>
<path d="M40.5762 15.8148L44.8474 10.5136L45.9152 9.45337H48.0507L49.1185 10.5136L53.3897 15.8148H40.5762Z" fill="#E4E4E2"/>
<path d="M58.7286 62.4648C58.1389 62.4648 57.6608 61.9901 57.6608 61.4046V6.27259C57.6608 4.51607 56.2265 3.0919 54.4574 3.0919H51.254C49.485 3.0919 48.0506 4.51607 48.0506 6.27259C48.0506 6.8581 47.5725 7.33282 46.9828 7.33282C46.3931 7.33282 45.915 6.8581 45.915 6.27259C45.9187 3.34608 48.3066 0.975059 51.254 0.971436H54.4574C57.4048 0.975059 59.7927 3.34608 59.7964 6.27259V61.4046C59.7964 61.9901 59.3183 62.4648 58.7286 62.4648Z" fill="#C3C3C3"/>
<path d="M6.40693 23.2363H44.8476C47.2064 23.2363 49.1188 25.1352 49.1188 27.4773V38.0796H2.13574V27.4773C2.13574 25.1352 4.04818 23.2363 6.40693 23.2363Z" fill="#D9C2A0"/>
<path d="M2.13574 35.9592H49.1188V39.1399H2.13574V35.9592Z" fill="#C1AC8E"/>
<path d="M51.2542 48.6819H0V40.2001C0 39.029 0.95622 38.0796 2.13559 38.0796H49.1186C50.298 38.0796 51.2542 39.029 51.2542 40.2001V48.6819Z" fill="#5D62B5"/>
<path d="M10.6779 29.5977H19.2203C21.579 29.5977 23.4915 31.4965 23.4915 33.8386C23.4915 36.1806 21.579 38.0795 19.2203 38.0795H10.6779C8.31918 38.0795 6.40674 36.1806 6.40674 33.8386C6.40674 31.4965 8.31918 29.5977 10.6779 29.5977Z" fill="#50559F"/>
<path d="M32.0339 29.5977H40.5763C42.935 29.5977 44.8474 31.4965 44.8474 33.8386C44.8474 36.1806 42.935 38.0795 40.5763 38.0795H32.0339C29.6751 38.0795 27.7627 36.1806 27.7627 33.8386C27.7627 31.4965 29.6751 29.5977 32.0339 29.5977Z" fill="#50559F"/>
<path d="M44.8477 6.27271H49.1188V10.5136H44.8477V6.27271Z" fill="#DBDBDB"/>
<path d="M61.9321 62.4649H55.5253C54.9356 62.4649 54.4575 61.9902 54.4575 61.4047C54.4575 60.8192 54.9356 60.3445 55.5253 60.3445H61.9321C62.5218 60.3445 62.9999 60.8192 62.9999 61.4047C62.9999 61.9902 62.5218 62.4649 61.9321 62.4649Z" fill="#B9B9B9"/>
<path d="M19.2203 29.5977H10.6779C8.31918 29.5977 6.40674 31.4965 6.40674 33.8386H23.4915C23.4915 31.4965 21.579 29.5977 19.2203 29.5977Z" fill="#5D62B5"/>
<path d="M40.5763 29.5977H32.0339C29.6751 29.5977 27.7627 31.4965 27.7627 33.8386H44.8474C44.8474 31.4965 42.935 29.5977 40.5763 29.5977Z" fill="#5D62B5"/>
</g>
<defs>
<clipPath id="clip0_614_153">
<rect width="63" height="62.5536" fill="white" transform="translate(0 0.441406)"/>
</clipPath>
</defs>
</svg>
