<svg width="63" height="64" viewBox="0 0 63 64" fill="none" xmlns="http://www.w3.org/2000/svg">
<path d="M30.5156 31.1616H32.4844V36.0486H30.5156V31.1616Z" fill="#CBCBCB"/>
<path d="M2.95312 19.4329H60.0469V31.1617H2.95312V19.4329Z" fill="#50559F"/>
<path d="M17.7188 19.4329H60.0469V31.1617H17.7188C16.1523 31.1617 14.65 30.5438 13.5424 29.444C12.4348 28.3442 11.8125 26.8526 11.8125 25.2973C11.8125 23.7419 12.4348 22.2503 13.5424 21.1505C14.65 20.0507 16.1523 19.4329 17.7188 19.4329V19.4329Z" fill="#5D62B5"/>
<path d="M41.3438 24.3198H43.3125V26.2746H41.3438V24.3198Z" fill="#50559F"/>
<path d="M45.2812 24.3198H47.25V26.2746H45.2812V24.3198Z" fill="#50559F"/>
<path d="M49.2188 24.3198H51.1875V26.2746H49.2188V24.3198Z" fill="#50559F"/>
<path d="M24.6094 18.4556V32.1392H38.3906V18.4556H24.6094ZM34.4531 28.2296H28.5469V22.3652H34.4531V28.2296Z" fill="#E4E4E2"/>
<path d="M38.3906 39.9583C38.3906 41.3114 37.9865 42.6342 37.2293 43.7594C36.4722 44.8845 35.396 45.7614 34.1369 46.2793C32.8778 46.7971 31.4924 46.9326 30.1557 46.6686C28.8191 46.4046 27.5913 45.753 26.6276 44.7961C25.6639 43.8393 25.0077 42.6202 24.7418 41.293C24.4759 39.9658 24.6124 38.5902 25.1339 37.34C25.6554 36.0898 26.5386 35.0213 27.6718 34.2695C28.8049 33.5177 30.1372 33.1165 31.5 33.1165C33.3274 33.1167 35.0799 33.8376 36.3721 35.1207C37.6643 36.4037 38.3904 38.1438 38.3906 39.9583Z" fill="#F3AF3E"/>
<path d="M34.4531 22.3652H35.4375V28.2296H34.4531V22.3652Z" fill="#CBCBCB"/>
<path d="M23.625 19.4329H24.6094V31.1617H23.625V19.4329Z" fill="#50559F"/>
</svg>
