<svg width="63" height="64" viewBox="0 0 63 64" fill="none" xmlns="http://www.w3.org/2000/svg">
<path d="M56.9953 30.1844C57.1533 29.4159 57.1227 28.621 56.906 27.8667C56.6893 27.1125 56.293 26.4211 55.7506 25.8509C55.2081 25.2808 54.5354 24.8487 53.7893 24.5911C53.0432 24.3335 52.2456 24.2581 51.4639 24.371C51.0633 23.9049 50.5257 23.5751 49.9266 23.4281C49.3275 23.2811 48.697 23.3243 48.1239 23.5516C47.4847 22.5645 46.6003 21.7574 45.556 21.2079C44.5116 20.6584 43.3424 20.3851 42.1608 20.4143C42.0094 19.9868 41.7602 19.5999 41.4328 19.2842C41.1054 18.9684 40.7087 18.7323 40.2739 18.5945C39.8391 18.4566 39.3781 18.4207 38.927 18.4896C38.4759 18.5585 38.047 18.7303 37.674 18.9915C36.0214 17.3944 33.8062 16.5007 31.5 16.5007C29.1938 16.5007 26.9787 17.3944 25.326 18.9915C24.9531 18.7303 24.5242 18.5585 24.0731 18.4896C23.622 18.4207 23.1609 18.4566 22.7261 18.5945C22.2913 18.7323 21.8947 18.9684 21.5673 19.2842C21.2399 19.5999 20.9907 19.9868 20.8392 20.4143C19.6577 20.3852 18.4885 20.6585 17.4442 21.208C16.3999 21.7574 15.5156 22.5645 14.8764 23.5516C14.3033 23.3243 13.6728 23.2811 13.0737 23.4281C12.4746 23.5751 11.937 23.9049 11.5364 24.371C10.7549 24.2589 9.95764 24.3349 9.21191 24.5928C8.46618 24.8507 7.79383 25.2828 7.25152 25.8527C6.70922 26.4226 6.31286 27.1136 6.09587 27.8675C5.87888 28.6214 5.84761 29.416 6.00471 30.1844L7.87502 31.1618H56.1094L56.9953 30.1844Z" fill="#A45E14"/>
<path d="M60.0469 49.7322H2.95312V45.8226L4.92188 44.8452H59.0625L60.0469 45.8226V49.7322Z" fill="#50559F"/>
<path d="M60.0469 45.8227H2.95312L5.90625 30.1843H57.0938L60.0469 45.8227Z" fill="#5D62B5"/>
<path d="M39.7811 38.0035C40.0827 37.8014 40.3278 37.5268 40.4936 37.2052C40.6593 36.8837 40.7403 36.5257 40.729 36.1646C40.7177 35.8035 40.6144 35.4512 40.4289 35.1405C40.2433 34.8298 39.9814 34.5708 39.6678 34.3878C39.3541 34.2048 38.9989 34.1036 38.6352 34.0938C38.2715 34.084 37.9113 34.1658 37.5881 34.3317C37.2649 34.4975 36.9893 34.742 36.787 35.0423C36.5847 35.3425 36.4623 35.6887 36.4313 36.0487H26.7534C26.7221 35.689 26.5996 35.3431 26.3973 35.0432C26.195 34.7432 25.9194 34.4991 25.5964 34.3335C25.2734 34.1678 24.9134 34.0861 24.5499 34.096C24.1865 34.1059 23.8315 34.207 23.5181 34.3899C23.2047 34.5728 22.943 34.8315 22.7575 35.142C22.572 35.4525 22.4687 35.8045 22.4573 36.1653C22.4458 36.5261 22.5266 36.8839 22.6921 37.2053C22.8576 37.5268 23.1023 37.8013 23.4036 38.0035C23.102 38.2055 22.8568 38.4801 22.6911 38.8017C22.5253 39.1232 22.4443 39.4813 22.4556 39.8423C22.4669 40.2034 22.5702 40.5557 22.7558 40.8664C22.9414 41.1771 23.2032 41.4361 23.5168 41.6191C23.8305 41.8022 24.1858 41.9033 24.5494 41.9131C24.9131 41.9229 25.2734 41.8411 25.5966 41.6752C25.9198 41.5094 26.1954 41.2649 26.3977 40.9647C26.6 40.6644 26.7223 40.3182 26.7534 39.9583H36.4313C36.4625 40.3179 36.585 40.6638 36.7874 40.9637C36.9897 41.2637 37.2652 41.5078 37.5882 41.6735C37.9113 41.8391 38.2713 41.9208 38.6347 41.9109C38.9981 41.901 39.3531 41.7999 39.6665 41.617C39.98 41.4341 40.2417 41.1754 40.4272 40.8649C40.6127 40.5545 40.7159 40.2024 40.7274 39.8416C40.7388 39.4808 40.658 39.123 40.4926 38.8016C40.3271 38.4801 40.0823 38.2056 39.7811 38.0035V38.0035Z" fill="#29C3BE"/>
<path d="M23.625 24.32C25.256 24.32 26.5781 23.0072 26.5781 21.3878C26.5781 19.7684 25.256 18.4556 23.625 18.4556C21.994 18.4556 20.6719 19.7684 20.6719 21.3878C20.6719 23.0072 21.994 24.32 23.625 24.32Z" fill="#62B58F"/>
<path d="M27.5625 26.2748C29.1935 26.2748 30.5156 24.962 30.5156 23.3426C30.5156 21.7232 29.1935 20.4104 27.5625 20.4104C25.9315 20.4104 24.6094 21.7232 24.6094 23.3426C24.6094 24.962 25.9315 26.2748 27.5625 26.2748Z" fill="#F2726F"/>
<path d="M13.7812 29.2069C15.4122 29.2069 16.7344 27.8941 16.7344 26.2747C16.7344 24.6553 15.4122 23.3425 13.7812 23.3425C12.1503 23.3425 10.8281 24.6553 10.8281 26.2747C10.8281 27.8941 12.1503 29.2069 13.7812 29.2069Z" fill="#F2726F"/>
<path d="M49.2188 29.2069C50.8497 29.2069 52.1719 27.8941 52.1719 26.2747C52.1719 24.6553 50.8497 23.3425 49.2188 23.3425C47.5878 23.3425 46.2656 24.6553 46.2656 26.2747C46.2656 27.8941 47.5878 29.2069 49.2188 29.2069Z" fill="#62B58F"/>
<path d="M39.375 24.32C41.006 24.32 42.3281 23.0072 42.3281 21.3878C42.3281 19.7684 41.006 18.4556 39.375 18.4556C37.744 18.4556 36.4219 19.7684 36.4219 21.3878C36.4219 23.0072 37.744 24.32 39.375 24.32Z" fill="#F2726F"/>
</svg>
