<svg width="63" height="63" viewBox="0 0 63 63" fill="none" xmlns="http://www.w3.org/2000/svg">
<path d="M27.5625 21.9442L21.6562 27.8086C21.4803 27.7218 21.3097 27.6278 21.1444 27.5263C20.1658 26.9366 19.3449 26.1213 18.7511 25.1496C18.1574 24.1779 17.8083 23.0783 17.7335 21.9442C17.7237 21.7914 17.7188 21.6375 17.7188 21.4823V19.012H23.625L27.5625 21.9442Z" fill="#F3AF3E"/>
<path d="M25.5936 24.8765L23.1327 26.3426L21.1443 27.5265C20.1657 26.9368 19.3448 26.1215 18.751 25.1498C18.1573 24.178 17.8082 23.0785 17.7334 21.9443H22.7303L25.1088 24.3805L25.5936 24.8765Z" fill="#5B3726"/>
<path d="M45.2812 19.012V21.4823C45.2812 21.6375 45.2763 21.7914 45.2665 21.9442C45.1848 23.1765 44.7797 24.3662 44.0916 25.395C43.4034 26.4238 42.4561 27.2559 41.3438 27.8086L35.4375 21.9442L39.375 19.012H45.2812Z" fill="#F3AF3E"/>
<path d="M45.2665 21.9443C45.1968 23.0014 44.8889 24.0295 44.3654 24.9525C43.8419 25.8756 43.1162 26.67 42.242 27.2773L39.375 25.8539L37.4062 24.8765L37.8911 24.3805L40.2695 21.9443H45.2665Z" fill="#5B3726"/>
<path d="M42.3281 29.7634V42.4696H20.6719V29.7634C20.6719 26.9119 21.8127 24.1773 23.8434 22.161C25.874 20.1447 28.6282 19.012 31.5 19.012C34.3718 19.012 37.126 20.1447 39.1566 22.161C41.1873 24.1773 42.3281 26.9119 42.3281 29.7634V29.7634Z" fill="#F3AF3E"/>
<path d="M44.2969 4.35107L43.3125 8.26068L54.1406 15.1025V41.4923H58.0781V13.1477L45.2812 4.67692L44.2969 4.35107Z" fill="#B9B9B9"/>
<path d="M58.0781 44.4243V50.2887C58.0781 52.8809 57.041 55.367 55.195 57.2C53.3489 59.033 50.8451 60.0627 48.2344 60.0627H14.7656C12.1549 60.0627 9.6511 59.033 7.80504 57.2C5.95898 55.367 4.92188 52.8809 4.92188 50.2887V44.4243H58.0781Z" fill="#5D62B5"/>
<path d="M58.0781 40.5149H4.92188C3.83456 40.5149 2.95312 41.3901 2.95312 42.4697C2.95312 43.5493 3.83456 44.4245 4.92188 44.4245H58.0781C59.1654 44.4245 60.0469 43.5493 60.0469 42.4697C60.0469 41.3901 59.1654 40.5149 58.0781 40.5149Z" fill="#5D62B5"/>
<path d="M42.6712 11.4202L38.2676 4.93739L41.0281 3.68632C41.7788 3.34607 42.6268 3.28129 43.4211 3.50348C44.2154 3.72568 44.9045 4.22044 45.3659 4.89976C45.8273 5.57905 46.0311 6.39884 45.941 7.21329C45.8509 8.02775 45.4727 8.78405 44.8737 9.34767L42.6712 11.4202Z" fill="#CBCBCB"/>
<path d="M26.269 25.9192L29.2231 24.9425L29.8453 26.7977L26.8912 27.7744L26.269 25.9192Z" fill="#D18D28"/>
<path d="M33.1577 26.7649L33.7799 24.9097L36.734 25.8864L36.1118 27.7416L33.1577 26.7649Z" fill="#D18D28"/>
<path d="M37.6302 33.4666L36.7497 31.7183C35.9696 32.103 33.3192 34.2373 32.4846 33.9897V31.7183H30.5159V33.9907C29.6812 34.238 27.0298 32.1029 26.2497 31.7183L25.3691 33.4666C26.0449 33.8004 28.5369 36.0485 29.291 36.0815C30.045 36.1144 30.7976 35.9901 31.5003 35.7166C32.203 35.99 32.9556 36.1142 33.7096 36.0812C34.4636 36.0481 36.9545 33.8005 37.6302 33.4666Z" fill="#744630"/>
<path d="M23.625 39.5374C23.6256 39.8806 23.5348 40.2178 23.3617 40.5148H20.6719V36.6052C21.4551 36.6052 22.2062 36.9142 22.76 37.464C23.3139 38.0139 23.625 38.7598 23.625 39.5374Z" fill="#D18D28"/>
<path d="M42.3281 36.6052V40.5148H39.6383C39.4652 40.2178 39.3744 39.8806 39.375 39.5374C39.375 38.7598 39.6861 38.0139 40.24 37.464C40.7938 36.9142 41.5449 36.6052 42.3281 36.6052Z" fill="#D18D28"/>
<path d="M28.5469 17.0572H26.5781C26.5775 15.9442 26.7722 14.8396 27.1535 13.793L29.0052 14.4571C28.7015 15.2908 28.5464 16.1707 28.5469 17.0572V17.0572Z" fill="#C0F5F9"/>
<path d="M29.9013 12.7236L28.2783 11.6169C29.0624 10.4799 30.0852 9.52491 31.2764 8.81774L31.9777 8.3999L32.9906 10.0761L32.2893 10.494C31.3405 11.0573 30.5258 11.8179 29.9013 12.7236V12.7236Z" fill="#C0F5F9"/>
<path d="M33.4688 17.0572H31.5C31.4994 15.9442 31.6941 14.8396 32.0754 13.793L33.9271 14.4571C33.6234 15.2908 33.4683 16.1707 33.4688 17.0572V17.0572Z" fill="#C0F5F9"/>
<path d="M34.8232 12.7236L33.2002 11.6169C33.9843 10.4799 35.0071 9.52491 36.1982 8.81774L36.8996 8.3999L37.9125 10.0761L37.2112 10.494C36.2624 11.0573 35.4477 11.8179 34.8232 12.7236V12.7236Z" fill="#C0F5F9"/>
<path d="M38.3907 17.0572H36.4219C36.4212 15.9442 36.6159 14.8396 36.9973 13.793L38.849 14.4571C38.5452 15.2908 38.3901 16.1707 38.3907 17.0572V17.0572Z" fill="#C0F5F9"/>
<path d="M9.84375 36.6053C12.0184 36.6053 13.7812 34.855 13.7812 32.6957C13.7812 30.5365 12.0184 28.7861 9.84375 28.7861C7.66913 28.7861 5.90625 30.5365 5.90625 32.6957C5.90625 34.855 7.66913 36.6053 9.84375 36.6053Z" fill="#B3E4E8"/>
<path d="M5.90625 25.8539C7.53722 25.8539 8.85938 24.5411 8.85938 22.9217C8.85938 21.3023 7.53722 19.9895 5.90625 19.9895C4.27528 19.9895 2.95312 21.3023 2.95312 22.9217C2.95312 24.5411 4.27528 25.8539 5.90625 25.8539Z" fill="#C0F5F9"/>
<path d="M48.2344 33.673C49.3217 33.673 50.2031 32.7978 50.2031 31.7182C50.2031 30.6386 49.3217 29.7634 48.2344 29.7634C47.1471 29.7634 46.2656 30.6386 46.2656 31.7182C46.2656 32.7978 47.1471 33.673 48.2344 33.673Z" fill="#C0F5F9"/>
<path d="M31.5 50.8998C31.8481 50.8998 32.1819 50.7753 32.4281 50.5539C32.6742 50.3324 32.8125 50.032 32.8125 49.7187V48.5377C32.8125 48.2245 32.6742 47.9241 32.4281 47.7026C32.1819 47.4811 31.8481 47.3567 31.5 47.3567C31.1519 47.3567 30.8181 47.4811 30.5719 47.7026C30.3258 47.9241 30.1875 48.2245 30.1875 48.5377V49.7187C30.1875 50.032 30.3258 50.3324 30.5719 50.5539C30.8181 50.7753 31.1519 50.8998 31.5 50.8998Z" fill="#29C3BE"/>
<path d="M28.875 52.0808V50.8998C28.875 50.5865 28.7367 50.2861 28.4906 50.0647C28.2444 49.8432 27.9106 49.7188 27.5625 49.7188C27.2144 49.7188 26.8806 49.8432 26.6344 50.0647C26.3883 50.2861 26.25 50.5865 26.25 50.8998V52.0808C26.25 52.394 26.3883 52.6944 26.6344 52.9159C26.8806 53.1374 27.2144 53.2618 27.5625 53.2618C27.9106 53.2618 28.2444 53.1374 28.4906 52.9159C28.7367 52.6944 28.875 52.394 28.875 52.0808Z" fill="#29C3BE"/>
<path d="M35.4375 49.7188C35.0894 49.7188 34.7556 49.8432 34.5094 50.0647C34.2633 50.2861 34.125 50.5865 34.125 50.8998V52.0808C34.125 52.394 34.2633 52.6944 34.5094 52.9159C34.7556 53.1374 35.0894 53.2618 35.4375 53.2618C35.7856 53.2618 36.1194 53.1374 36.3656 52.9159C36.6117 52.6944 36.75 52.394 36.75 52.0808V50.8998C36.75 50.5865 36.6117 50.2861 36.3656 50.0647C36.1194 49.8432 35.7856 49.7188 35.4375 49.7188Z" fill="#29C3BE"/>
<path d="M34.125 54.4429H32.8125V53.2618C32.8125 52.9486 32.6742 52.6482 32.4281 52.4267C32.1819 52.2052 31.8481 52.0808 31.5 52.0808C31.1519 52.0808 30.8181 52.2052 30.5719 52.4267C30.3258 52.6482 30.1875 52.9486 30.1875 53.2618V54.4429H28.875C28.5269 54.4429 28.1931 54.5673 27.9469 54.7888C27.7008 55.0103 27.5625 55.3107 27.5625 55.6239C27.5625 55.9371 27.7008 56.2375 27.9469 56.459C28.1931 56.6805 28.5269 56.8049 28.875 56.8049H34.125C34.4731 56.8049 34.8069 56.6805 35.0531 56.459C35.2992 56.2375 35.4375 55.9371 35.4375 55.6239C35.4375 55.3107 35.2992 55.0103 35.0531 54.7888C34.8069 54.5673 34.4731 54.4429 34.125 54.4429Z" fill="#29C3BE"/>
<path d="M20.6719 41.4922H18.7031C18.181 41.4922 17.6802 41.2863 17.311 40.9197C16.9418 40.5531 16.7344 40.0559 16.7344 39.5374C16.7344 38.7598 17.0455 38.0139 17.5993 37.464C18.1531 36.9142 18.9043 36.6052 19.6875 36.6052C20.4707 36.6052 21.2219 36.9142 21.7757 37.464C22.3295 38.0139 22.6406 38.7598 22.6406 39.5374C22.6406 40.0559 22.4332 40.5531 22.064 40.9197C21.6948 41.2863 21.194 41.4922 20.6719 41.4922Z" fill="#F3AF3E"/>
<path d="M44.2969 41.4922H42.3281C41.806 41.4922 41.3052 41.2863 40.936 40.9197C40.5668 40.5531 40.3594 40.0559 40.3594 39.5374C40.3594 38.7598 40.6705 38.0139 41.2243 37.464C41.7781 36.9142 42.5293 36.6052 43.3125 36.6052C44.0957 36.6052 44.8469 36.9142 45.4007 37.464C45.9545 38.0139 46.2656 38.7598 46.2656 39.5374C46.2656 40.0559 46.0582 40.5531 45.689 40.9197C45.3198 41.2863 44.819 41.4922 44.2969 41.4922Z" fill="#F3AF3E"/>
<path d="M31.5 32.6957C30.9779 32.6957 30.4771 32.4898 30.1079 32.1232C29.7387 31.7566 29.5312 31.2594 29.5312 30.7409V28.7861H33.4688V30.7409C33.4688 31.2594 33.2613 31.7566 32.8921 32.1232C32.5229 32.4898 32.0221 32.6957 31.5 32.6957Z" fill="#5B3726"/>
<path d="M4.92188 44.4243H58.0781V46.3791H4.92188V44.4243Z" fill="#50559F"/>
<path d="M34.4497 6.31763L37.7139 4.13216L43.2166 12.2348L39.9524 14.4203L34.4497 6.31763Z" fill="#B9B9B9"/>
</svg>
