<svg width="63" height="63" viewBox="0 0 63 63" fill="none" xmlns="http://www.w3.org/2000/svg">
<path d="M43.5103 37.5825V47.3565L44.4946 51.2661L47.4478 52.2435L46.4634 56.1531H41.5415L39.5728 47.3565V41.4921L43.5103 37.5825Z" fill="#DBDBDB"/>
<path d="M15.75 55.1759H10.918C9.91516 55.1759 8.93216 54.8987 8.07914 54.3751C7.22611 53.8516 6.53678 53.1026 6.08838 52.212C3.52768 47.1291 2.5021 41.4193 3.13525 35.7709L3.15125 35.6279C3.42687 35.7367 3.69512 35.8576 3.95844 35.9871C5.16854 36.5856 6.25461 37.4046 7.16012 38.4013C8.26572 39.617 9.07601 41.0681 9.52877 42.6432C9.69056 43.2045 9.96802 43.7263 10.3436 44.1755C10.7191 44.6248 11.1846 44.9916 11.7104 45.2529L12.0106 45.4019L13.9794 52.2437L14.57 53.2211L15.75 55.1759Z" fill="#DBDBDB"/>
<path d="M14.57 53.2211H11.9023C10.8995 53.2211 9.91651 52.9438 9.06349 52.4203C8.21047 51.8968 7.52113 51.1477 7.07273 50.2571C5.01105 46.1642 3.93763 41.6507 3.9375 37.0744C3.9375 36.7128 3.94365 36.3499 3.95842 35.9871C5.16853 36.5856 6.2546 37.4045 7.1601 38.4012C8.2657 39.6169 9.07599 41.0681 9.52875 42.6432C9.69054 43.2044 9.968 43.7262 10.3436 44.1755C10.7191 44.6247 11.1845 44.9916 11.7104 45.2528L12.0106 45.4019L13.9794 52.2437L14.57 53.2211Z" fill="#EAEAE8"/>
<path d="M55.3228 10.2155V15.1025L52.3696 17.0573L49.355 17.656L47.4478 18.0347L47.177 18.9755L46.0746 22.8069L45.8038 23.7476C45.7952 23.7769 45.7866 23.8063 45.7805 23.8368C45.7007 24.1284 45.6476 24.4264 45.6217 24.7275C45.5963 25.0181 45.5955 25.3103 45.6193 25.601C45.6316 25.7464 45.6488 25.8906 45.6734 26.0347C46.1887 29.1075 45.8056 32.2626 44.5697 35.1258L43.5103 37.5827L39.5728 41.4923V47.3567L40.439 51.2272L43.5103 52.2437L42.5259 56.1533H37.604L34.6509 45.4019L32.9578 47.0831C31.4711 48.5595 29.7543 49.7881 27.8735 50.7214L26.7759 51.2663H27.8476C28.6076 51.2667 29.3363 51.5666 29.8737 52.1001C30.411 52.6337 30.7131 53.3572 30.7134 54.1118V56.1533H16.6823C16.3273 56.1535 15.9757 56.0841 15.6477 55.9492C15.3197 55.8144 15.0216 55.6167 14.7705 55.3674C14.5195 55.1181 14.3204 54.8222 14.1846 54.4965C14.0487 54.1708 13.9789 53.8217 13.979 53.4692V52.2437L12.0103 45.4019L13.1903 41.1038C14.3395 36.9213 16.8598 33.2384 20.3528 30.6371L27.1905 25.5448C29.5067 23.8197 31.3868 21.5832 32.6821 19.0121L34.6509 17.0573L34.9622 16.1312V16.13L37.604 8.26071L42.5259 6.30591H47.4478L49.4165 10.2155H55.3228Z" fill="#EAEAE8"/>
<path d="M45.479 12.1701C46.0227 12.1701 46.4634 11.7325 46.4634 11.1927C46.4634 10.6529 46.0227 10.2153 45.479 10.2153C44.9353 10.2153 44.4946 10.6529 44.4946 11.1927C44.4946 11.7325 44.9353 12.1701 45.479 12.1701Z" fill="#8F563B"/>
<path d="M30.0088 52.2437H23.9451C23.684 52.2437 23.4336 52.1407 23.249 51.9574C23.0644 51.7741 22.9607 51.5255 22.9607 51.2663C22.9607 51.007 23.0644 50.7584 23.249 50.5751C23.4336 50.3918 23.684 50.2889 23.9451 50.2889C24.6133 50.2911 25.2688 50.1075 25.8373 49.7588C26.4058 49.41 26.8645 48.9101 27.1615 48.3157C27.5174 47.6047 27.6264 46.7967 27.4716 46.0176C27.2928 45.1175 26.9082 44.2701 26.3473 43.541C25.7864 42.8119 25.0643 42.2204 24.2367 41.8124L23.3827 41.3896C23.1491 41.2738 22.9713 41.0705 22.8886 40.8246C22.8059 40.5786 22.8249 40.3101 22.9416 40.0781C23.0583 39.8461 23.263 39.6696 23.5107 39.5875C23.7584 39.5053 24.0289 39.5242 24.2625 39.6401L25.1165 40.064C26.2131 40.6044 27.17 41.3878 27.9131 42.3538C28.6562 43.3198 29.1657 44.4425 29.4022 45.6352C29.5651 46.4511 29.5412 47.293 29.3323 48.0985C29.1233 48.904 28.7347 49.6526 28.1951 50.2889L26.7764 51.2663H27.8481C28.2578 51.2658 28.6628 51.3528 29.0356 51.5214C29.4084 51.6901 29.7403 51.9364 30.0088 52.2437V52.2437Z" fill="#DBDBDB"/>
<path d="M52.3696 10.2153C52.3696 10.993 52.6808 11.7388 53.2346 12.2887C53.7884 12.8386 54.5395 13.1475 55.3228 13.1475V10.2153H52.3696Z" fill="#8F563B"/>
<path d="M49.3555 17.6559L47.4482 18.0346L47.1775 18.9753L44.1838 17.9845C43.9878 17.9196 43.8173 17.7952 43.6965 17.6287C43.5757 17.4623 43.5107 17.2623 43.5107 17.0572V15.1024C43.5107 14.8432 43.6145 14.5946 43.7991 14.4113C43.9837 14.228 44.234 14.125 44.4951 14.125C44.7562 14.125 45.0066 14.228 45.1912 14.4113C45.3758 14.5946 45.4795 14.8432 45.4795 15.1024V16.3523L49.1783 17.5764C49.2399 17.5969 49.2993 17.6235 49.3555 17.6559V17.6559Z" fill="#DBDBDB"/>
<path d="M46.7883 23.7292C46.7929 23.9882 46.6937 24.2384 46.5126 24.4249C46.3315 24.6114 46.0832 24.7189 45.8224 24.7237L45.6218 24.7273L45.1173 24.7371C45.0398 24.7383 44.9623 24.7396 44.886 24.7396C42.579 24.7448 40.3189 24.0937 38.3729 22.8635C36.4269 21.6332 34.8766 19.8753 33.9053 17.7976L34.6509 17.0572L34.9622 16.1311C34.9827 16.1374 35.0029 16.1447 35.0225 16.1531C35.0463 16.1619 35.0693 16.1725 35.0914 16.1849C35.1082 16.1915 35.1242 16.1997 35.1394 16.2093C35.1591 16.2203 35.1776 16.2313 35.196 16.2435C35.3551 16.3489 35.48 16.4978 35.5553 16.6723C36.334 18.4888 37.6343 20.0372 39.294 21.1243C40.9536 22.2113 42.899 22.7889 44.8872 22.7848C44.9512 22.7848 45.0152 22.7835 45.0804 22.7823L45.7855 22.7701C45.8832 22.7674 45.9807 22.7797 46.0746 22.8067C46.277 22.8651 46.4553 22.986 46.5836 23.1519C46.712 23.3178 46.7837 23.52 46.7883 23.7292V23.7292Z" fill="#5D62B5"/>
<path d="M49.417 24.8764C49.4168 25.2628 49.3012 25.6404 49.0849 25.9616C48.8686 26.2827 48.5613 26.533 48.2018 26.6807C47.8423 26.8285 47.4467 26.8671 47.0651 26.7917C46.6835 26.7163 46.3329 26.5302 46.0578 26.257C45.7827 25.9838 45.5953 25.6358 45.5193 25.2569C45.4433 24.878 45.4822 24.4852 45.631 24.1282C45.7799 23.7712 46.0319 23.4661 46.3554 23.2513C46.6788 23.0366 47.0591 22.9218 47.4482 22.9216C47.9704 22.9216 48.4711 23.1276 48.8403 23.4942C49.2096 23.8608 49.417 24.358 49.417 24.8764Z" fill="#F3AF3E"/>
<path d="M48.2343 24.8764C48.2343 25.2921 48.1008 25.697 47.8532 26.0323C47.6056 26.3676 47.2568 26.6158 46.8574 26.7407C46.458 26.6158 46.1092 26.3676 45.8616 26.0323C45.614 25.6971 45.4805 25.2921 45.4805 24.8764C45.4805 24.4606 45.614 24.0557 45.8616 23.7204C46.1092 23.3851 46.458 23.1369 46.8574 23.012C47.2568 23.137 47.6056 23.3851 47.8532 23.7204C48.1008 24.0557 48.2343 24.4606 48.2343 24.8764V24.8764Z" fill="#EA9D2D"/>
<path d="M56.1094 56.1532C58.284 56.1532 60.0469 54.4028 60.0469 52.2436C60.0469 50.0844 58.284 48.334 56.1094 48.334C53.9348 48.334 52.1719 50.0844 52.1719 52.2436C52.1719 54.4028 53.9348 56.1532 56.1094 56.1532Z" fill="#5D62B5"/>
<path d="M60.0469 52.2436C60.0469 53.2805 59.632 54.2749 58.8936 55.0081C58.1552 55.7413 57.1537 56.1532 56.1094 56.1532C56.7205 54.9393 57.0387 53.6007 57.0387 52.2436C57.0387 50.8864 56.7205 49.5479 56.1094 48.334C57.1537 48.334 58.1552 48.7459 58.8936 49.4791C59.632 50.2123 60.0469 51.2067 60.0469 52.2436Z" fill="#29C3BE"/>
<path d="M41.5421 12.1703V15.4885C41.5414 16.5253 41.1263 17.5194 40.3881 18.2526C39.6499 18.9858 38.6488 19.3983 37.6046 19.3994C37.4964 19.3994 37.3881 19.3945 37.2798 19.3859C36.6149 19.3312 35.975 19.1092 35.4206 18.7408L34.1052 17.871C34.0512 17.8353 34.0009 17.7944 33.9551 17.7488L34.6515 17.0573L34.9628 16.1312C34.9833 16.1374 35.0034 16.1448 35.0231 16.1532C35.0469 16.162 35.0699 16.1726 35.092 16.1849C35.1087 16.1916 35.1248 16.1998 35.14 16.2094C35.1597 16.2204 35.1782 16.2314 35.1966 16.2436L36.512 17.1147C36.8085 17.3109 37.1531 17.4235 37.509 17.4406C37.8649 17.4577 38.2188 17.3785 38.533 17.2116C38.8472 17.0448 39.1099 16.7964 39.2931 16.4929C39.4763 16.1895 39.5732 15.8423 39.5734 15.4885V12.1703C39.5734 11.911 39.6771 11.6624 39.8617 11.4791C40.0463 11.2958 40.2967 11.1929 40.5578 11.1929C40.8188 11.1929 41.0692 11.2958 41.2538 11.4791C41.4384 11.6624 41.5421 11.911 41.5421 12.1703V12.1703Z" fill="#C3C3C3"/>
</svg>
